<svg xmlns="http://www.w3.org/2000/svg" xmlns:xlink="http://www.w3.org/1999/xlink" width="1451" height="1003.1" viewBox="0 0 1451 1003.1">
  <defs>
    <linearGradient id="linear-gradient" x1="0.5" x2="0.5" y2="1" gradientUnits="objectBoundingBox">
      <stop offset="0.028" stop-color="#202b48"/>
      <stop offset="0.305" stop-color="#5b72a6"/>
      <stop offset="0.531" stop-color="#977aa6"/>
      <stop offset="0.71" stop-color="#d19eaf"/>
      <stop offset="0.995" stop-color="#f4f3b4"/>
    </linearGradient>
    <radialGradient id="radial-gradient" cx="0.5" cy="0.5" r="0.5" gradientUnits="objectBoundingBox">
      <stop offset="0.01" stop-color="#f4f3b0"/>
      <stop offset="1" stop-color="#f9ed32"/>
    </radialGradient>
    <linearGradient id="linear-gradient-2" x1="0.5" x2="0.5" y2="1" gradientUnits="objectBoundingBox">
      <stop offset="0" stop-color="#ba9bc9"/>
      <stop offset="0.995" stop-color="#f4f3b4"/>
    </linearGradient>
    <linearGradient id="linear-gradient-3" x1="0.5" y1="-0.001" x2="0.5" y2="0.999" xlink:href="#linear-gradient-2"/>
    <linearGradient id="linear-gradient-4" x1="-1.462" y1="0.001" x2="-1.462" y2="1" xlink:href="#linear-gradient-2"/>
    <linearGradient id="linear-gradient-5" x1="0.5" y1="0.002" x2="0.5" y2="1.003" xlink:href="#linear-gradient-2"/>
    <linearGradient id="linear-gradient-6" x1="0.5" y1="0.001" x2="0.5" y2="1.002" xlink:href="#linear-gradient-2"/>
    <linearGradient id="linear-gradient-7" x1="0.5" y1="0.002" x2="0.5" y2="1.003" xlink:href="#linear-gradient-2"/>
    <linearGradient id="linear-gradient-8" x1="0.5" y1="0" x2="0.5" y2="0.998" xlink:href="#linear-gradient-2"/>
    <linearGradient id="linear-gradient-9" x1="0.505" x2="0.505" y2="1" gradientUnits="objectBoundingBox">
      <stop offset="0.01" stop-color="#00a79d"/>
      <stop offset="1" stop-color="#1b75bc"/>
    </linearGradient>
    <linearGradient id="linear-gradient-10" x1="0.5" x2="0.5" y2="1" gradientUnits="objectBoundingBox">
      <stop offset="0" stop-color="#00a9bd"/>
      <stop offset="1" stop-color="#006582"/>
    </linearGradient>
    <linearGradient id="linear-gradient-11" x1="0.5" x2="0.5" y2="0.999" gradientUnits="objectBoundingBox">
      <stop offset="0" stop-color="#509ab9"/>
      <stop offset="1" stop-color="#004f68"/>
    </linearGradient>
    <linearGradient id="linear-gradient-12" x1="0.5" x2="0.5" y2="1" gradientUnits="objectBoundingBox">
      <stop offset="0" stop-color="#56a4c4"/>
      <stop offset="1" stop-color="#003151"/>
    </linearGradient>
    <linearGradient id="linear-gradient-13" x1="0.5" x2="0.5" y2="1" gradientUnits="objectBoundingBox">
      <stop offset="0" stop-color="#3ba9dc"/>
      <stop offset="1" stop-color="#003455"/>
    </linearGradient>
  </defs>
  <g id="landscape-1844226" transform="translate(253.398 378.171)">
    <rect id="Rectangle_5" data-name="Rectangle 5" width="1451" height="835" transform="translate(-253.398 -378.171)" fill="url(#linear-gradient)"/>
    <g id="Group_2" data-name="Group 2" transform="translate(16.131 15.008)" opacity="0.59">
      <path id="Path_33" data-name="Path 33" d="M302.038,19.98c2.45,0,2.45-3.88,0-3.88S299.587,19.98,302.038,19.98Z" transform="translate(-9.839 -14.671)" fill="#f1f2f2"/>
      <path id="Path_34" data-name="Path 34" d="M460.05,83.6c3.267,0,3.267-5.1,0-5.1S456.783,83.6,460.05,83.6Z" transform="translate(-6.54 -13.363)" fill="#f1f2f2"/>
      <path id="Path_35" data-name="Path 35" d="M172.025,50.252a1.277,1.277,0,0,0,0-2.552A1.277,1.277,0,0,0,172.025,50.252Z" transform="translate(-12.551 -14.008)" fill="#f1f2f2"/>
      <path id="Path_36" data-name="Path 36" d="M241.025,92.252a1.277,1.277,0,0,0,0-2.552A1.277,1.277,0,0,0,241.025,92.252Z" transform="translate(-11.105 -13.128)" fill="#f1f2f2"/>
      <path id="Path_37" data-name="Path 37" d="M400.025,264.252a1.277,1.277,0,0,0,0-2.552A1.277,1.277,0,0,0,400.025,264.252Z" transform="translate(-7.772 -9.523)" fill="#f1f2f2"/>
      <path id="Path_38" data-name="Path 38" d="M490.025,195.252a1.277,1.277,0,0,0,0-2.552A1.277,1.277,0,0,0,490.025,195.252Z" transform="translate(-5.886 -10.969)" fill="#f1f2f2"/>
      <path id="Path_39" data-name="Path 39" d="M608.025,280.252a1.277,1.277,0,0,0,0-2.552A1.277,1.277,0,0,0,608.025,280.252Z" transform="translate(-3.413 -9.188)" fill="#f1f2f2"/>
      <path id="Path_40" data-name="Path 40" d="M713.025,198.252a1.277,1.277,0,0,0,0-2.552A1.277,1.277,0,0,0,713.025,198.252Z" transform="translate(-1.212 -10.906)" fill="#f1f2f2"/>
      <path id="Path_41" data-name="Path 41" d="M775.025,176.252a1.277,1.277,0,0,0,0-2.552A1.277,1.277,0,0,0,775.025,176.252Z" transform="translate(0.087 -11.367)" fill="#f1f2f2"/>
      <path id="Path_42" data-name="Path 42" d="M779.025,244.252a1.277,1.277,0,0,0,0-2.552A1.277,1.277,0,0,0,779.025,244.252Z" transform="translate(0.171 -9.942)" fill="#f1f2f2"/>
      <path id="Path_43" data-name="Path 43" d="M662.025,129.252a1.277,1.277,0,0,0,0-2.552A1.277,1.277,0,0,0,662.025,129.252Z" transform="translate(-2.281 -12.353)" fill="#f1f2f2"/>
      <path id="Path_44" data-name="Path 44" d="M749.025,17.252a1.277,1.277,0,0,0,0-2.552A1.277,1.277,0,0,0,749.025,17.252Z" transform="translate(-0.458 -14.7)" fill="#f1f2f2"/>
      <path id="Path_45" data-name="Path 45" d="M38.025,280.252a1.277,1.277,0,0,0,0-2.552A1.277,1.277,0,0,0,38.025,280.252Z" transform="translate(-15.36 -9.188)" fill="#f1f2f2"/>
      <path id="Path_46" data-name="Path 46" d="M17.025,141.252a1.277,1.277,0,0,0,0-2.552A1.277,1.277,0,0,0,17.025,141.252Z" transform="translate(-15.8 -12.101)" fill="#f1f2f2"/>
      <path id="Path_47" data-name="Path 47" d="M106.025,64.252a1.277,1.277,0,0,0,0-2.552A1.277,1.277,0,0,0,106.025,64.252Z" transform="translate(-13.935 -13.715)" fill="#f1f2f2"/>
      <path id="Path_48" data-name="Path 48" d="M51.038,38.98c2.45,0,2.45-3.88,0-3.88S48.587,38.98,51.038,38.98Z" transform="translate(-15.1 -14.272)" fill="#f1f2f2"/>
      <path id="Path_49" data-name="Path 49" d="M77.038,101.98c2.45,0,2.45-3.88,0-3.88S74.587,101.98,77.038,101.98Z" transform="translate(-14.555 -12.952)" fill="#f1f2f2"/>
      <path id="Path_50" data-name="Path 50" d="M432.038,65.98c2.45,0,2.45-3.88,0-3.88S429.587,65.98,432.038,65.98Z" transform="translate(-7.114 -13.707)" fill="#f1f2f2"/>
      <path id="Path_51" data-name="Path 51" d="M320.038,167.98c2.45,0,2.45-3.88,0-3.88S317.587,167.98,320.038,167.98Z" transform="translate(-9.462 -11.569)" fill="#f1f2f2"/>
      <path id="Path_52" data-name="Path 52" d="M138.038,305.98c2.45,0,2.45-3.88,0-3.88S135.587,305.98,138.038,305.98Z" transform="translate(-13.276 -8.676)" fill="#f1f2f2"/>
      <path id="Path_53" data-name="Path 53" d="M233.038,217.98c2.45,0,2.45-3.88,0-3.88S230.587,217.98,233.038,217.98Z" transform="translate(-11.285 -10.521)" fill="#f1f2f2"/>
    </g>
    <circle id="Ellipse_1" data-name="Ellipse 1" cx="56.867" cy="56.867" r="56.867" transform="translate(429.068 400.053)" fill="url(#radial-gradient)"/>
    <path id="Path_54" data-name="Path 54" d="M61.259,162.681A11.543,11.543,0,0,1,66,140.089a7.81,7.81,0,0,1,15.159-3.28A16.242,16.242,0,0,1,93.326,117.86a8.181,8.181,0,0,1,16.179,0,14.078,14.078,0,0,1,18.074,18.767,11.239,11.239,0,0,1,20.771,4.191c.219-.109,5.1-2.769,9.839,0a9.953,9.953,0,0,1,4.737,9.839c1.786-2.441,4.81-3.243,6.924-2.186,2.15,1.093,3.061,4.482,2.405,6.851-2.624,9.183-30.464,10.276-30.464,10.276s-17.637.838-36.076.729c-17.418-.109-26.127-1.02-29.881-1.458C69.823,164.175,64.794,163.337,61.259,162.681Z" transform="translate(217.719 102.205)" opacity="0.68" fill="url(#linear-gradient-2)"/>
    <path id="Path_55" data-name="Path 55" d="M568.772,85.917c-8.586-1.5-14.021-8.034-12.445-14.493,1.654-6.7,10.24-11.185,19.141-9.925-.473-4.254,3.308-8.192,8.743-9.058,5.356-.866,10.87,1.5,12.682,5.514a14.543,14.543,0,0,1,3.23-13c4.8-5.671,12.288-7.168,13.863-7.483.945-4.1,5.278-7.089,10.24-7.483,5.75-.394,11.343,2.757,12.524,7.483,8.349-2.284,17.644-.394,22.922,4.726,4.49,4.332,5.435,10.319,2.6,15.517,3.387-4.332,10-6.617,16.463-5.671,6.617.945,11.815,5.041,12.839,10.24.315-.158,7.168-2.993,13.863,0,4.726,2.127,7.4,6.3,6.7,10.634a9.431,9.431,0,0,1,9.767-2.363,6,6,0,0,1,3.387,7.4c-3.7,9.925-42.929,11.106-42.929,11.106s-24.891.945-50.885.788c-24.576-.158-36.864-1.1-42.141-1.575-8.507-.788-15.6-1.654-20.559-2.363Z" transform="translate(26.863 61.371)" opacity="0.82" fill="url(#linear-gradient-3)"/>
    <path id="Path_56" data-name="Path 56" d="M573.781,97.266a9.336,9.336,0,0,0,7.243-10.731,9.511,9.511,0,0,0-11.133-7.31,6.391,6.391,0,0,0-5.1-6.707,6.534,6.534,0,0,0-7.378,4.091,12.728,12.728,0,0,0-1.878-9.591,14.043,14.043,0,0,0-8.048-5.567,6.736,6.736,0,0,0-13.28,0,12.057,12.057,0,0,0-13.347,3.488,11.2,11.2,0,0,0-1.475,11.536,9.388,9.388,0,0,0-9.591-4.225,9.189,9.189,0,0,0-7.512,7.579c-.2-.067-4.158-2.213-8.048,0a7.888,7.888,0,0,0-3.89,7.847,4.776,4.776,0,0,0-5.7-1.744c-1.744.872-2.549,3.555-1.945,5.5,2.146,7.31,25.017,8.182,25.017,8.182s14.487.671,29.644.6a226,226,0,0,0,24.547-1.14C566.739,98.473,570.83,97.8,573.781,97.266Z" transform="translate(61.652 62.343)" opacity="0.92" fill="url(#linear-gradient-4)"/>
    <path id="Path_57" data-name="Path 57" d="M183.74,381c-7.861-1.429-12.966-7.657-11.435-13.885,1.531-6.33,9.495-10.72,17.663-9.495-.51-4.084,3.063-7.861,8.066-8.678s10.005,1.429,11.639,5.309a14.331,14.331,0,0,1,2.961-12.456c4.492-5.411,11.333-6.84,12.762-7.147.919-3.88,4.8-6.84,9.495-7.147,5.309-.408,10.414,2.654,11.537,7.147,7.759-2.246,16.233-.306,21.134,4.492a12.289,12.289,0,0,1,2.348,14.8c3.165-4.186,9.189-6.33,15.11-5.411,6.126.919,10.924,4.8,11.843,9.8.306-.1,6.636-2.859,12.762,0,4.39,2.042,6.84,6.024,6.126,10.107a8.478,8.478,0,0,1,8.984-2.246,5.773,5.773,0,0,1,3.063,7.045c-3.369,9.495-39.511,10.618-39.511,10.618s-22.972.919-46.862.715c-22.665-.1-34-1.021-38.8-1.531-7.759-.51-14.293-1.327-18.888-2.042Z" transform="translate(3.606 6.864)" opacity="0.79" fill="url(#linear-gradient-5)"/>
    <path id="Path_58" data-name="Path 58" d="M12.24,353.4C4.379,351.97-.726,345.742.806,339.514c1.531-6.33,9.495-10.72,17.663-9.495-.51-4.084,3.063-7.861,8.066-8.678s10.005,1.429,11.639,5.309a14.331,14.331,0,0,1,2.961-12.456c4.492-5.411,11.333-6.84,12.762-7.147.919-3.88,4.8-6.84,9.495-7.147,5.309-.408,10.414,2.654,11.537,7.147,7.759-2.246,16.233-.306,21.134,4.492a12.289,12.289,0,0,1,2.348,14.8c3.165-4.186,9.189-6.33,15.11-5.411,6.126.919,10.924,4.8,11.843,9.8.306-.1,6.636-2.859,12.762,0,4.39,2.042,6.84,6.024,6.126,10.108a8.478,8.478,0,0,1,8.984-2.246,5.773,5.773,0,0,1,3.063,7.045c-3.369,9.495-39.511,10.618-39.511,10.618s-22.972.919-46.862.715c-22.665-.1-34-1.021-38.8-1.531-7.759-.51-14.293-1.429-18.888-2.042Z" transform="translate(0.011 6.285)" opacity="0.79" fill="url(#linear-gradient-6)"/>
    <path id="Path_59" data-name="Path 59" d="M533.74,342.4c-7.861-1.429-12.966-7.657-11.435-13.885,1.531-6.33,9.495-10.72,17.663-9.495-.51-4.084,3.063-7.861,8.066-8.678s10.005,1.429,11.639,5.309a14.331,14.331,0,0,1,2.961-12.456c4.492-5.411,11.333-6.84,12.762-7.147.919-3.88,4.8-6.84,9.495-7.147,5.309-.408,10.414,2.655,11.537,7.147,7.759-2.246,16.233-.306,21.134,4.492a12.289,12.289,0,0,1,2.348,14.8c3.165-4.186,9.189-6.33,15.11-5.411,6.126.919,10.924,4.8,11.843,9.8.306-.1,6.636-2.859,12.762,0,4.39,2.042,6.84,6.024,6.126,10.108a8.478,8.478,0,0,1,8.984-2.246,5.773,5.773,0,0,1,3.063,7.045c-3.369,9.495-39.511,10.618-39.511,10.618s-22.972.919-46.862.715c-22.665-.1-34-1.021-38.8-1.531-7.759-.51-14.191-1.327-18.888-2.042Z" transform="translate(10.942 6.054)" opacity="0.79" fill="url(#linear-gradient-7)"/>
    <path id="Path_60" data-name="Path 60" d="M437.355,365.889c-11.639-1.94-19.092-10.414-16.948-18.786,2.246-8.678,13.987-14.5,26.034-12.864-.715-5.513,4.492-10.618,11.843-11.741s14.7,1.94,17.254,7.147c-.408-1.531-2.246-9.291,4.492-16.846,6.534-7.351,16.744-9.291,18.888-9.7,1.327-5.309,7.147-9.189,13.987-9.7,7.861-.51,15.416,3.573,17.05,9.7,11.435-2.961,23.993-.51,31.139,6.126,6.024,5.615,7.351,13.375,3.471,20.215,4.7-5.615,13.579-8.576,22.359-7.351,9.087,1.225,16.131,6.534,17.458,13.272.408-.2,9.8-3.88,18.888,0,6.432,2.757,10.005,8.168,9.087,13.783,3.471-3.471,9.291-4.594,13.272-3.063a7.613,7.613,0,0,1,4.594,9.6c-5,12.864-58.3,14.4-58.4,14.4,0,0-33.794,1.225-69.119,1.021-33.385-.2-50.129-1.429-57.276-2.042-11.639-1.123-21.236-2.246-28.076-3.165Z" transform="translate(8.804 6.149)" opacity="0.79" fill="url(#linear-gradient-8)"/>
    <path id="Path_61" data-name="Path 61" d="M640.327,362.058c-2.911-3.477-5.821-6.872-8.651-10.349.081.809.809,9.864-4.123,16.251-4.447,5.74-10.025,4.77-10.834,4.608-1.7.162-11.885,1.051-19.161-9.3a34.243,34.243,0,0,1-5.013-11.561l-13.34,10.43a299.012,299.012,0,0,0-46.569-48.671A246.63,246.63,0,0,0,495.2,288c-4.042,10.268-14.957,34.28-36.544,50.935-20.536,15.846-39.778,16.574-48.186,16.251a23.956,23.956,0,0,1-11.642-9.3,31.881,31.881,0,0,1-4.123-8.085c-6.791,10.43-17.868,25.063-34.118,37.029-19.4,14.391-61.365,21.91-66.539,16.251-6.953-7.762-6.71-19.566-6.63-20.859-6.63,8.085-13.34,16.251-19.97,24.336a202.619,202.619,0,0,0-38.242-33.553,169.043,169.043,0,0,0-39.05-19.646c-9.54,10.106-38.889,39.374-73.977,45.195-15.927,2.668-34.038,8.489-42.365-5.821-6.549-11.076-4.042-28.216-2.506-35.9a300.722,300.722,0,0,0-40.748,35.9c-4.366,4.608-8.57,9.3-12.451,13.906C13.34,393.185.323,384.372.323,384.372L0,450.022s424.944-2.264,640.327-3.4" transform="translate(184.944 74.897)" fill="url(#linear-gradient-9)"/>
    <path id="Path_62" data-name="Path 62" d="M0,379.795c3.234-2.749,6.468-5.579,9.783-8.328-.081.566-.808,6.872,4.042,11.319a13.6,13.6,0,0,0,10.51,3.234c1.7.162,11.561.728,18.6-6.468a21.09,21.09,0,0,0,4.851-8.085c4.285,2.426,8.651,4.851,12.936,7.276a254.888,254.888,0,0,1,45.276-33.957A260.971,260.971,0,0,1,142.376,327a90.964,90.964,0,0,0,82.466,46.893,24.051,24.051,0,0,0,11.319-6.468,23.367,23.367,0,0,0,4.042-5.659,121.785,121.785,0,0,0,33.148,25.872c18.838,10.025,59.667,15.361,64.68,11.319,6.71-5.417,6.468-13.664,6.468-14.553l19.4,16.978a195.959,195.959,0,0,1,37.191-23.446,193.591,193.591,0,0,1,38-13.744c9.3,7.034,37.837,27.489,71.956,31.531,15.523,1.859,33.067,5.983,41.233-4.042,6.306-7.762,3.881-19.646,2.426-25.063a280.933,280.933,0,0,1,39.616,25.063q6.428,4.851,12.127,9.7a51.6,51.6,0,0,0,17.3-7.2c6.791-4.447,16.574-8.247,16.655-8.408v54.412L0,437.764" transform="translate(184.944 67.428)" fill="url(#linear-gradient-10)"/>
    <path id="Path_63" data-name="Path 63" d="M.4,413.2a233.43,233.43,0,0,1,57.807-17.463C123.3,385.063,167.762,407.055,240.123,424.6c34.2,8.247,81.011,12.774,174.635,21.829,99.445,9.621,225.57,16.655,225.57,16.655v31.046S10.268,521.78,0,524.367C.4,413.2,0,524.286.4,413.2Z" transform="translate(184.944 54.802)" fill="url(#linear-gradient-11)"/>
    <path id="Path_64" data-name="Path 64" d="M.5,451.557c56.514,16.9,154.584,43.335,270.037,19.485,12.208-2.506,8-2.1,29.914-7.276,106.317-25.144,339.972-16.412,339.972-16.412v77.454c0-.566-434.4,84-638.953-36.059-1.294-26.842-.162-2.587-.808-32.259-.081-1.455-.081-3.153-.162-4.932Z" transform="translate(184.848 44.66)" fill="url(#linear-gradient-12)"/>
    <path id="Path_65" data-name="Path 65" d="M640.519,500.7a2675.016,2675.016,0,0,1-317.091,19.081A2691.446,2691.446,0,0,1,1,500.7v90.066H640.519Z" transform="translate(184.753 34.163)" fill="url(#linear-gradient-13)"/>
  </g>
</svg>
