<svg id="landscape-1844231" xmlns="http://www.w3.org/2000/svg" xmlns:xlink="http://www.w3.org/1999/xlink" width="1859" height="1194.1" viewBox="0 0 1859 1194.1">
  <defs>
    <linearGradient id="linear-gradient" x1="0.5" x2="0.5" y2="1" gradientUnits="objectBoundingBox">
      <stop offset="0.006" stop-color="#1f000a"/>
      <stop offset="0.314" stop-color="#300454"/>
      <stop offset="0.993" stop-color="#0066ab"/>
    </linearGradient>
    <radialGradient id="radial-gradient" cx="0.5" cy="0.5" r="0.502" gradientTransform="translate(0.003) scale(0.994 1)" gradientUnits="objectBoundingBox">
      <stop offset="0" stop-color="#f1f7e6"/>
      <stop offset="0.99" stop-color="#a3acb1"/>
    </radialGradient>
    <linearGradient id="linear-gradient-2" x1="0.5" x2="0.5" y2="1" gradientUnits="objectBoundingBox">
      <stop offset="0" stop-color="#4787a1"/>
      <stop offset="0.995" stop-color="#2f1753"/>
    </linearGradient>
    <linearGradient id="linear-gradient-3" x1="0.5" y1="-0.001" x2="0.5" y2="0.999" xlink:href="#linear-gradient-2"/>
    <linearGradient id="linear-gradient-4" x1="-23.02" y1="0.001" x2="-23.02" y2="1" xlink:href="#linear-gradient-2"/>
    <linearGradient id="linear-gradient-5" x1="0.5" y1="0.002" x2="0.5" y2="1.003" xlink:href="#linear-gradient-2"/>
    <linearGradient id="linear-gradient-6" x1="0.5" y1="0.001" x2="0.5" y2="1.002" xlink:href="#linear-gradient-2"/>
    <linearGradient id="linear-gradient-7" x1="0.5" y1="0.002" x2="0.5" y2="1.003" xlink:href="#linear-gradient-2"/>
    <linearGradient id="linear-gradient-8" x1="0.5" y1="0" x2="0.5" y2="0.998" xlink:href="#linear-gradient-2"/>
    <linearGradient id="linear-gradient-9" x1="-3.763" x2="-3.763" y2="1" gradientUnits="objectBoundingBox">
      <stop offset="0.005" stop-color="#412267"/>
      <stop offset="1" stop-color="#160b45"/>
    </linearGradient>
    <linearGradient id="linear-gradient-10" x1="0.5" x2="0.5" y2="1" gradientUnits="objectBoundingBox">
      <stop offset="0" stop-color="#372871"/>
      <stop offset="1" stop-color="#190020"/>
    </linearGradient>
    <linearGradient id="linear-gradient-11" x1="0.5" x2="0.5" y2="0.999" gradientUnits="objectBoundingBox">
      <stop offset="0" stop-color="#441854"/>
      <stop offset="0.164" stop-color="#31083b"/>
      <stop offset="0.288" stop-color="#220028"/>
      <stop offset="0.352" stop-color="#1a0020"/>
      <stop offset="0.355" stop-color="#1a0020"/>
      <stop offset="0.449" stop-color="#180424"/>
      <stop offset="0.545" stop-color="#161127"/>
      <stop offset="0.642" stop-color="#15182a"/>
      <stop offset="0.743" stop-color="#141b2b"/>
      <stop offset="0.849" stop-color="#131c2b"/>
    </linearGradient>
    <linearGradient id="linear-gradient-12" y1="0" y2="1" xlink:href="#linear-gradient-11"/>
    <linearGradient id="linear-gradient-13" y1="0" y2="1" xlink:href="#linear-gradient-11"/>
  </defs>
  <rect id="Rectangle_4" data-name="Rectangle 4" width="1859" height="1068" fill="url(#linear-gradient)"/>
  <path id="Path_1" data-name="Path 1" d="M237.517,98.21c-1.163-5.642.116-10.3,1.163-14.076A42.649,42.649,0,0,1,242,75.7c-15.879,2.966-27.4,16.635-27.4,31.991a32.4,32.4,0,1,0,64.8,0,36.209,36.209,0,0,1-20.94,6.224c-4.13-.116-10.7-.349-15.7-5.235a19.631,19.631,0,0,1-5.235-10.47Z" transform="translate(581.902 758.696)" fill="url(#radial-gradient)"/>
  <path id="Path_21" data-name="Path 21" d="M67.449,198.2a19.46,19.46,0,0,1,7.986-38.088,13.167,13.167,0,0,1,25.556-5.529,27.382,27.382,0,0,1,20.518-31.945A14.122,14.122,0,0,1,133.8,110.961c6.88-.676,13.577,4.3,14.989,11.672a23.733,23.733,0,0,1,30.47,31.638,18.948,18.948,0,0,1,35.016,7.065c.369-.184,8.6-4.669,16.587,0a16.779,16.779,0,0,1,7.986,16.587c3.01-4.116,8.109-5.467,11.672-3.686,3.625,1.843,5.16,7.556,4.055,11.549-4.423,15.481-51.357,17.324-51.357,17.324s-29.733,1.413-60.818,1.229c-29.365-.184-44.047-1.72-50.374-2.457C81.885,200.714,73.408,199.3,67.449,198.2Z" transform="translate(642.922 741.174)" opacity="0.68" fill="url(#linear-gradient-2)"/>
  <g id="Group_1" data-name="Group 1" transform="translate(644.766 728.271)" opacity="0.59">
    <path id="Path_2" data-name="Path 2" d="M327.647,37.156a1.53,1.53,0,0,0,0-3.056C325.717,34.18,325.717,37.156,327.647,37.156Z" transform="translate(-97.507 -33.055)" fill="#f1f2f2"/>
    <path id="Path_3" data-name="Path 3" d="M485.53,100.521c2.573,0,2.573-4.021,0-4.021S482.957,100.521,485.53,100.521Z" transform="translate(-128.338 -45.277)" fill="#f1f2f2"/>
    <path id="Path_4" data-name="Path 4" d="M197.765,67.81a1.006,1.006,0,0,0,0-2.01A1.006,1.006,0,0,0,197.765,67.81Z" transform="translate(-72.161 -39.264)" fill="#f1f2f2"/>
    <path id="Path_5" data-name="Path 5" d="M266.765,109.81a1.006,1.006,0,0,0,0-2.01A1.006,1.006,0,0,0,266.765,109.81Z" transform="translate(-85.676 -47.491)" fill="#f1f2f2"/>
    <path id="Path_6" data-name="Path 6" d="M425.765,281.81a1.006,1.006,0,0,0,0-2.01A1.006,1.006,0,0,0,425.765,281.81Z" transform="translate(-116.821 -81.182)" fill="#f1f2f2"/>
    <path id="Path_7" data-name="Path 7" d="M515.765,212.81a1.006,1.006,0,0,0,0-2.01A1.006,1.006,0,0,0,515.765,212.81Z" transform="translate(-134.45 -67.666)" fill="#f1f2f2"/>
    <path id="Path_8" data-name="Path 8" d="M633.765,297.81a1.006,1.006,0,0,0,0-2.01A1.006,1.006,0,0,0,633.765,297.81Z" transform="translate(-157.563 -84.316)" fill="#f1f2f2"/>
    <path id="Path_9" data-name="Path 9" d="M738.765,215.81a1.006,1.006,0,0,0,0-2.01A1.006,1.006,0,0,0,738.765,215.81Z" transform="translate(-178.13 -68.254)" fill="#f1f2f2"/>
    <path id="Path_10" data-name="Path 10" d="M687.765,146.81a1.006,1.006,0,0,0,0-2.01A1.006,1.006,0,0,0,687.765,146.81Z" transform="translate(-168.141 -54.738)" fill="#f1f2f2"/>
    <path id="Path_11" data-name="Path 11" d="M774.765,34.81a1.006,1.006,0,0,0,0-2.01A1.006,1.006,0,0,0,774.765,34.81Z" transform="translate(-185.182 -32.8)" fill="#f1f2f2"/>
    <path id="Path_12" data-name="Path 12" d="M63.765,297.81a1.006,1.006,0,0,0,0-2.01A1.006,1.006,0,0,0,63.765,297.81Z" transform="translate(-45.913 -84.316)" fill="#f1f2f2"/>
    <path id="Path_13" data-name="Path 13" d="M42.765,158.81a1.006,1.006,0,0,0,0-2.01A1.006,1.006,0,0,0,42.765,158.81Z" transform="translate(-41.8 -57.089)" fill="#f1f2f2"/>
    <path id="Path_14" data-name="Path 14" d="M131.765,81.81a1.006,1.006,0,0,0,0-2.01A1.006,1.006,0,0,0,131.765,81.81Z" transform="translate(-59.233 -42.006)" fill="#f1f2f2"/>
    <path id="Path_15" data-name="Path 15" d="M76.647,56.156a1.53,1.53,0,0,0,0-3.056C74.718,53.18,74.718,56.156,76.647,56.156Z" transform="translate(-48.342 -36.776)" fill="#f1f2f2"/>
    <path id="Path_16" data-name="Path 16" d="M102.647,119.156a1.53,1.53,0,0,0,0-3.056C100.718,116.18,100.718,119.156,102.647,119.156Z" transform="translate(-53.435 -49.117)" fill="#f1f2f2"/>
    <path id="Path_17" data-name="Path 17" d="M457.647,83.156a1.53,1.53,0,0,0,0-3.056C455.717,80.18,455.717,83.156,457.647,83.156Z" transform="translate(-122.971 -42.065)" fill="#f1f2f2"/>
    <path id="Path_18" data-name="Path 18" d="M345.647,185.156a1.53,1.53,0,0,0,0-3.056C343.717,182.18,343.717,185.156,345.647,185.156Z" transform="translate(-101.033 -62.044)" fill="#f1f2f2"/>
    <path id="Path_20" data-name="Path 20" d="M258.647,235.156a1.53,1.53,0,0,0,0-3.056C256.718,232.18,256.718,235.156,258.647,235.156Z" transform="translate(-88.992 -41.838)" fill="#f1f2f2"/>
    <path id="Path_19" data-name="Path 19" d="M163.647,323.156a1.53,1.53,0,0,0,0-3.056C161.718,320.18,161.718,323.156,163.647,323.156Z" transform="translate(-65.384 -89.075)" fill="#f1f2f2"/>
  </g>
  <path id="Path_22" data-name="Path 22" d="M569.038,87.084c-8.765-1.528-14.313-8.2-12.705-14.8,1.689-6.835,10.454-11.419,19.54-10.132-.482-4.342,3.377-8.363,8.926-9.247,5.468-.885,11.1,1.528,12.946,5.629a14.846,14.846,0,0,1,3.3-13.268c4.905-5.79,12.544-7.318,14.153-7.639.965-4.181,5.388-7.237,10.454-7.639,5.87-.4,11.579,2.814,12.786,7.639,8.524-2.332,18.012-.4,23.4,4.825,4.583,4.423,5.548,10.534,2.654,15.841,3.458-4.423,10.212-6.755,16.806-5.79,6.755.965,12.062,5.146,13.107,10.454.322-.161,7.318-3.056,14.153,0,4.825,2.171,7.559,6.433,6.835,10.856a9.628,9.628,0,0,1,9.971-2.412,6.124,6.124,0,0,1,3.458,7.559C725.037,89.095,684.992,90.3,684.992,90.3s-25.41.965-51.946.8c-25.089-.161-37.633-1.126-43.021-1.608C581.341,88.693,574.1,87.808,569.038,87.084Z" transform="translate(488.236 702.028)" opacity="0.82" fill="url(#linear-gradient-3)"/>
  <path id="Path_23" data-name="Path 23" d="M591.942,105.505a11.193,11.193,0,0,0,8.685-12.866,11.4,11.4,0,0,0-13.348-8.765,7.662,7.662,0,0,0-6.111-8.041,7.834,7.834,0,0,0-8.845,4.905,15.261,15.261,0,0,0-2.252-11.5,16.838,16.838,0,0,0-9.649-6.674,8.077,8.077,0,0,0-15.922,0,14.456,14.456,0,0,0-16,4.181,13.422,13.422,0,0,0-1.769,13.831,11.256,11.256,0,0,0-11.5-5.066,11.018,11.018,0,0,0-9.006,9.087c-.241-.08-4.986-2.654-9.649,0a9.458,9.458,0,0,0-4.664,9.408c-1.769-2.332-4.744-3.136-6.835-2.091s-3.056,4.262-2.332,6.594c2.573,8.765,29.994,9.81,29.994,9.81s17.369.8,35.542.724a270.968,270.968,0,0,0,29.431-1.367c5.79-.724,10.695-1.528,14.233-2.171Z" transform="translate(482.643 724.956)" opacity="0.92" fill="url(#linear-gradient-4)"/>
  <path id="Path_24" data-name="Path 24" d="M181.254,369.629c-6.192-1.126-10.212-6.031-9.006-10.936,1.206-4.986,7.478-8.443,13.911-7.478-.4-3.216,2.412-6.192,6.353-6.835s7.88,1.126,9.167,4.181a11.287,11.287,0,0,1,2.332-9.81c3.538-4.262,8.926-5.388,10.052-5.629.724-3.056,3.779-5.388,7.478-5.629,4.181-.322,8.2,2.091,9.087,5.629,6.111-1.769,12.786-.241,16.645,3.538a9.679,9.679,0,0,1,1.849,11.66c2.493-3.3,7.237-4.986,11.9-4.262,4.825.724,8.6,3.779,9.328,7.72.241-.08,5.227-2.252,10.052,0,3.458,1.608,5.388,4.744,4.825,7.961a6.677,6.677,0,0,1,7.076-1.769,4.547,4.547,0,0,1,2.412,5.548c-2.654,7.478-31.12,8.363-31.12,8.363s-18.093.724-36.909.563c-17.852-.08-26.777-.8-30.557-1.206-6.111-.4-11.258-1.045-14.876-1.608Z" transform="translate(577.457 637.754)" opacity="0.79" fill="url(#linear-gradient-5)"/>
  <path id="Path_25" data-name="Path 25" d="M9.754,342.029C3.562,340.9-.458,336,.748,331.093c1.206-4.986,7.478-8.443,13.911-7.478-.4-3.216,2.412-6.192,6.353-6.835s7.88,1.126,9.167,4.181a11.287,11.287,0,0,1,2.332-9.81c3.538-4.262,8.926-5.388,10.052-5.629.724-3.056,3.779-5.388,7.478-5.629,4.181-.322,8.2,2.091,9.087,5.629,6.111-1.769,12.786-.241,16.645,3.538a9.679,9.679,0,0,1,1.849,11.66c2.493-3.3,7.237-4.986,11.9-4.262,4.825.724,8.6,3.779,9.328,7.72.241-.08,5.227-2.252,10.052,0,3.458,1.608,5.388,4.744,4.825,7.961a6.677,6.677,0,0,1,7.076-1.769,4.547,4.547,0,0,1,2.412,5.548c-2.654,7.478-31.12,8.363-31.12,8.363S74,345,55.187,344.843c-17.852-.08-26.777-.8-30.557-1.206-6.111-.4-11.258-1.126-14.876-1.608Z" transform="translate(611.049 643.16)" opacity="0.79" fill="url(#linear-gradient-6)"/>
  <path id="Path_26" data-name="Path 26" d="M531.254,331.029c-6.192-1.126-10.212-6.031-9.006-10.936,1.206-4.986,7.478-8.443,13.911-7.478-.4-3.216,2.412-6.192,6.353-6.835s7.88,1.126,9.167,4.181a11.287,11.287,0,0,1,2.332-9.81c3.538-4.262,8.926-5.388,10.052-5.629.724-3.056,3.779-5.388,7.478-5.629,4.181-.322,8.2,2.091,9.087,5.629,6.111-1.769,12.786-.241,16.645,3.538a9.679,9.679,0,0,1,1.85,11.66c2.493-3.3,7.237-4.986,11.9-4.262,4.825.724,8.6,3.779,9.328,7.72.241-.08,5.227-2.252,10.052,0,3.458,1.608,5.388,4.744,4.825,7.961a6.677,6.677,0,0,1,7.076-1.769,4.547,4.547,0,0,1,2.412,5.548c-2.654,7.478-31.12,8.363-31.12,8.363s-18.093.724-36.909.563c-17.852-.08-26.777-.8-30.557-1.206-6.111-.4-11.177-1.045-14.876-1.608Z" transform="translate(508.9 645.314)" opacity="0.79" fill="url(#linear-gradient-7)"/>
  <path id="Path_27" data-name="Path 27" d="M433.678,350.484c-9.167-1.528-15.037-8.2-13.348-14.8,1.769-6.835,11.016-11.419,20.505-10.132-.563-4.342,3.538-8.363,9.328-9.247s11.579,1.528,13.59,5.629a14.259,14.259,0,0,1,3.538-13.268c5.146-5.79,13.188-7.318,14.876-7.639,1.045-4.181,5.629-7.237,11.017-7.639,6.192-.4,12.142,2.814,13.429,7.639,9.006-2.332,18.9-.4,24.526,4.825,4.744,4.423,5.79,10.534,2.734,15.922,3.7-4.423,10.695-6.755,17.61-5.79,7.157.965,12.705,5.146,13.75,10.454.322-.161,7.72-3.056,14.876,0,5.066,2.171,7.88,6.433,7.157,10.856a10.49,10.49,0,0,1,10.454-2.412,6,6,0,0,1,3.619,7.559c-3.94,10.132-45.915,11.338-46,11.338,0,0-26.616.965-54.439.8-26.295-.161-39.482-1.126-45.111-1.608-9.167-.885-16.726-1.769-22.113-2.493Z" transform="translate(528.878 644.434)" opacity="0.79" fill="url(#linear-gradient-8)"/>
  <path id="Path_28" data-name="Path 28" d="M636.865,361.658c-2.895-3.458-5.79-6.835-8.6-10.293.08.8.8,9.81-4.1,16.163-4.423,5.709-9.971,4.744-10.775,4.584-1.689.161-11.821,1.045-19.058-9.247a34.061,34.061,0,0,1-4.986-11.5l-13.268,10.373a297.4,297.4,0,0,0-46.318-48.408A245.3,245.3,0,0,0,492.525,288c-4.021,10.212-14.876,34.095-36.346,50.66-20.425,15.761-39.563,16.484-47.926,16.163a23.827,23.827,0,0,1-11.579-9.247,31.706,31.706,0,0,1-4.1-8.041c-6.755,10.373-17.771,24.928-33.934,36.829-19.3,14.313-61.033,21.792-66.179,16.163-6.915-7.72-6.674-19.46-6.594-20.746-6.594,8.041-13.268,16.163-19.862,24.2a201.526,201.526,0,0,0-38.035-33.371,168.128,168.128,0,0,0-38.839-19.54c-9.489,10.052-38.678,39.161-73.577,44.95-15.841,2.654-33.854,8.443-42.136-5.79-6.513-11.016-4.021-28.064-2.493-35.7a299.1,299.1,0,0,0-40.528,35.7c-4.342,4.584-8.524,9.247-12.383,13.831C13.268,392.616.322,383.852.322,383.852L0,449.146s422.647-2.252,636.865-3.377" transform="translate(611.154 645.484)" fill="url(#linear-gradient-9)"/>
  <path id="Path_29" data-name="Path 29" d="M0,379.509c3.216-2.734,6.433-5.548,9.73-8.282-.08.563-.8,6.835,4.021,11.258A13.53,13.53,0,0,0,24.2,385.7c1.689.161,11.5.724,18.495-6.433a20.976,20.976,0,0,0,4.825-8.041c4.262,2.412,8.6,4.825,12.866,7.237a253.508,253.508,0,0,1,45.031-33.773A259.561,259.561,0,0,1,141.606,327a90.472,90.472,0,0,0,82.021,46.639,23.921,23.921,0,0,0,11.258-6.433,23.239,23.239,0,0,0,4.021-5.629,121.125,121.125,0,0,0,32.969,25.732c18.736,9.971,59.344,15.278,64.33,11.258,6.674-5.388,6.433-13.59,6.433-14.474l19.3,16.887a194.9,194.9,0,0,1,36.99-23.32,192.54,192.54,0,0,1,37.794-13.67c9.247,7,37.633,27.34,71.567,31.361,15.439,1.849,32.889,5.951,41.01-4.021,6.272-7.72,3.86-19.54,2.412-24.928a279.417,279.417,0,0,1,39.4,24.928q6.393,4.825,12.062,9.65a51.318,51.318,0,0,0,17.208-7.157c6.755-4.423,16.485-8.2,16.565-8.363v54.117L0,437.165" transform="translate(611.154 637.845)" fill="url(#linear-gradient-10)"/>
  <path id="Path_30" data-name="Path 30" d="M.4,413.089A232.17,232.17,0,0,1,57.9,395.72c64.732-10.614,108.959,11.258,180.928,28.707,34.014,8.2,80.573,12.705,173.691,21.711,98.907,9.569,224.35,16.565,224.35,16.565v30.878S10.212,521.083,0,523.656c.4-110.567,0-.08.4-110.567Z" transform="translate(611.154 624.93)" fill="url(#linear-gradient-11)"/>
  <path id="Path_31" data-name="Path 31" d="M.5,451.526c56.208,16.806,153.748,43.1,268.577,19.379,12.142-2.493,7.961-2.091,29.753-7.237,105.742-25.008,338.134-16.324,338.134-16.324V524.38c0-.563-432.055,83.548-635.5-35.864-1.287-26.7-.161-2.573-.8-32.084C.58,454.984.58,453.3.5,451.526Z" transform="translate(611.056 614.558)" fill="url(#linear-gradient-12)"/>
  <path id="Path_32" data-name="Path 32" d="M637.061,500.7a2660.537,2660.537,0,0,1-315.377,18.977A2676.863,2676.863,0,0,1,1,500.7v89.579H637.061V500.7Z" transform="translate(610.958 603.821)" fill="url(#linear-gradient-13)"/>
</svg>
