<?xml version="1.0" encoding="iso-8859-1"?>
<!-- Generator: Adobe Illustrator 19.0.0, SVG Export Plug-In . SVG Version: 6.00 Build 0)  -->
<svg version="1.1" id="Capa_1" xmlns="http://www.w3.org/2000/svg" xmlns:xlink="http://www.w3.org/1999/xlink" x="0px" y="0px"
	 viewBox="0 0 512 512" style="enable-background:new 0 0 512 512;" xml:space="preserve">
<g>
	<g>
		<path d="M466.208,146.208c4.167-4.167,4.167-10.917,0-15.083l-42.667-42.667c-4.167-4.167-10.917-4.167-15.083,0l-33.322,33.322
			c-22.763-15.379-48.641-26.477-76.47-32.147V64h10.667C315.229,64,320,59.229,320,53.333V10.667C320,4.771,315.229,0,309.333,0
			H202.667C196.771,0,192,4.771,192,10.667v42.667C192,59.229,196.771,64,202.667,64h10.667v25.633
			c-27.829,5.671-53.707,16.768-76.47,32.147l-33.322-33.322c-4.167-4.167-10.917-4.167-15.083,0l-42.667,42.667
			c-4.167,4.167-4.167,10.917,0,15.083l33.322,33.322c-23.001,34.043-36.447,75.048-36.447,119.137
			C42.667,416.302,138.365,512,256,512s213.333-95.698,213.333-213.333c0-44.089-13.445-85.094-36.447-119.137L466.208,146.208z
			 M338.219,380.875c-2.083,2.083-4.813,3.125-7.542,3.125c-2.729,0-5.458-1.042-7.542-3.125l-61.936-61.928
			C259.492,319.388,257.842,320,256,320c-11.76,0-21.333-9.573-21.333-21.333c0-7.792,4.409-14.329,10.667-18.053V160
			c0-5.896,4.771-10.667,10.667-10.667c5.896,0,10.667,4.771,10.667,10.667v120.613c6.258,3.724,10.667,10.262,10.667,18.053
			c0,1.842-0.611,3.491-1.052,5.197l61.938,61.928C342.385,369.958,342.385,376.708,338.219,380.875z"/>
	</g>
</g>
<g>
</g>
<g>
</g>
<g>
</g>
<g>
</g>
<g>
</g>
<g>
</g>
<g>
</g>
<g>
</g>
<g>
</g>
<g>
</g>
<g>
</g>
<g>
</g>
<g>
</g>
<g>
</g>
<g>
</g>
</svg>
